<svg width="24" height="24" viewBox="0 0 24 24" fill="none" xmlns="http://www.w3.org/2000/svg">
    <path
        d="M12 2C6.48 2 2 6.48 2 12C2 17.52 6.48 22 12 22C17.52 22 22 17.52 22 12C22 6.48 17.52 2 12 2ZM12 20C7.59 20 4 16.41 4 12C4 7.59 7.59 4 12 4C16.41 4 20 7.59 20 12C20 16.41 16.41 20 12 20Z"
        fill="#000000" />
    <path d="M15 8H14V10H13V11H15V13H16V8H15Z" fill="#000000" />
    <path d="M9 9H8V10H9V11H8V12H9V14H11V12H12V11H11V10H12V9H11V8H9V9Z" fill="#000000" />
    <path d="M9 15H15V16C15 17.1 14.1 18 13 18H11C9.9 18 9 17.1 9 16V15Z" fill="#000000" />
</svg>