<svg width="24" height="24" viewBox="0 0 24 24" fill="none" xmlns="http://www.w3.org/2000/svg">
    <path
        d="M13 3C9.23 3 6.19 5.95 6 9.66L4.08 14.63C3.84 15.32 4.35 16 5.07 16H6V19C6 20.1 6.9 21 8 21H10C11.1 21 12 20.1 12 19V16H13L15 11.33V19C15 20.1 15.9 21 17 21H19C20.1 21 21 20.1 21 19V7.66C21 7.31 20.84 6.97 20.55 6.73L17.74 4.46C16.74 3.66 15.43 3.23 14.11 3.48L13 3ZM15 10.5L13.5 14H9V19H8V14H6.58L8.18 9.82C8.33 9.31 8.27 8.76 8 8.31C7.67 7.77 7.36 7 8 6C9 4 10 5 12 5C14 5 14.22 5.29 15 6C15.9 6.9 15.97 7.44 16 8.14C16.06 9.27 16 10.14 15 10.5Z"
        fill="#000000" />
</svg>