<svg width="24" height="24" viewBox="0 0 24 24" fill="none" xmlns="http://www.w3.org/2000/svg">
    <path
        d="M21 5H18.36C18.44 4.84 18.5 4.67 18.5 4.5C18.5 3.67 17.83 3 17 3H7C6.17 3 5.5 3.67 5.5 4.5C5.5 4.67 5.56 4.84 5.64 5H3C2.45 5 2 5.45 2 6V20C2 20.55 2.45 21 3 21H21C21.55 21 22 20.55 22 20V6C22 5.45 21.55 5 21 5ZM13 14H11V16H9V14H7V12H9V10H11V12H13V14ZM12 4.25C12.41 4.25 12.75 4.59 12.75 5C12.75 5.41 12.41 5.75 12 5.75C11.59 5.75 11.25 5.41 11.25 5C11.25 4.59 11.59 4.25 12 4.25ZM7 5.5V4.5H17V5.5H7Z"
        fill="#000000" />
</svg>