<svg width="24" height="24" viewBox="0 0 24 24" fill="none" xmlns="http://www.w3.org/2000/svg">
    <path
        d="M6.62 10.79C8.06 13.62 10.38 15.94 13.21 17.38L15.41 15.18C15.79 14.8 16.36 14.67 16.85 14.85C18.27 15.37 19.79 15.64 21.35 15.64C21.92 15.64 22.35 16.07 22.35 16.64V20.35C22.35 20.92 21.92 21.35 21.35 21.35C10.15 21.35 2.65 13.85 2.65 2.65C2.65 2.08 3.08 1.65 3.65 1.65H7.36C7.93 1.65 8.36 2.08 8.36 2.65C8.36 4.21 8.63 5.73 9.15 7.15C9.33 7.64 9.2 8.21 8.82 8.59L6.62 10.79Z"
        fill="#000000" />
</svg>