<svg width="24" height="24" viewBox="0 0 24 24" fill="none" xmlns="http://www.w3.org/2000/svg">
    <path
        d="M19 3H5C3.895 3 3 3.895 3 5V19C3 20.105 3.895 21 5 21H19C20.105 21 21 20.105 21 19V5C21 3.895 20.105 3 19 3Z"
        fill="#FFEBEE" />
    <path d="M8.5 10.5V16.5H6.5V10.5H8.5Z" fill="#0077B5" />
    <path
        d="M7.5 9.5C8.05228 9.5 8.5 9.05228 8.5 8.5C8.5 7.94772 8.05228 7.5 7.5 7.5C6.94772 7.5 6.5 7.94772 6.5 8.5C6.5 9.05228 6.94772 9.5 7.5 9.5Z"
        fill="#0077B5" />
    <path
        d="M17.5 16.5H15.5V13.5C15.5 12.5 14.5 12.5 14.5 13.5V16.5H12.5V10.5H14.5V11.5C15.5 9.5 17.5 10 17.5 12.5V16.5Z"
        fill="#0077B5" />
</svg>