<svg width="24" height="24" viewBox="0 0 24 24" fill="none" xmlns="http://www.w3.org/2000/svg">
    <path
        d="M18 18.5C19.1046 18.5 20 17.6046 20 16.5C20 15.3954 19.1046 14.5 18 14.5C16.8954 14.5 16 15.3954 16 16.5C16 17.6046 16.8954 18.5 18 18.5Z"
        fill="#000000" />
    <path
        d="M6 18.5C7.10457 18.5 8 17.6046 8 16.5C8 15.3954 7.10457 14.5 6 14.5C4.89543 14.5 4 15.3954 4 16.5C4 17.6046 4.89543 18.5 6 18.5Z"
        fill="#000000" />
    <path d="M20 8L20 16.5L16 16.5L16 6L18.5 6C19.163 6 19.7989 6.36875 20.1 6.95L20 8Z" fill="#000000" />
    <path
        d="M9.6 14H14.4C14.7314 14 15 13.7314 15 13.4V7.1C15 6.76863 14.7314 6.5 14.4 6.5H9.6C9.26863 6.5 9 6.76863 9 7.1V13.4C9 13.7314 9.26863 14 9.6 14Z"
        fill="#FF0000" />
    <path d="M13.5 9.5H12V8H11V9.5H9.5V10.5H11V12H12V10.5H13.5V9.5Z" fill="#FFFFFF" />
    <path d="M8 16.5V5.00001C8 2.79086 6.20914 1 4 1H3C2.44772 1 2 1.44772 2 2.00001V14.5H4H8V16.5Z" fill="#000000" />
</svg>